<?xml version="1.0" encoding="UTF-8"?><svg xmlns="http://www.w3.org/2000/svg" xmlns:xlink="http://www.w3.org/1999/xlink" contentScriptType="text/ecmascript" width="1236" zoomAndPan="magnify" contentStyleType="text/css" height="1793" preserveAspectRatio="xMidYMid meet" version="1.0">
<g>
<rect x="699.0" width="296.0" height="673.0" y="1053.0" style="fill:rgb(0,0,255);stroke:none" opacity="0.1"/>
<path style="stroke:none;fill:rgb(0,0,255)" opacity="0.3" d="M701.000000 1057.500000 h10.000000 l-5.000000 5.000000 z"/>
</g>
<g>
<rect x="19.0" width="651.0" height="889.0" y="862.0" style="fill:rgb(0,0,255);stroke:none" opacity="0.1"/>
<path style="stroke:none;fill:rgb(0,0,255)" opacity="0.3" d="M21.000000 866.500000 h10.000000 l-5.000000 5.000000 z"/>
</g>
<g>
<rect x="1024.0" width="170.0" height="661.0" y="1078.0" style="fill:rgb(0,0,255);stroke:none" opacity="0.1"/>
<path style="stroke:none;fill:rgb(0,0,255)" opacity="0.3" d="M1026.000000 1082.500000 h10.000000 l-5.000000 5.000000 z"/>
</g>
<g>
<path style="fill:none;stroke:rgb(0,0,0);stroke-width:1" d="M853.370427 292.173828 C853.370427 294.396050 853.370427 296.618273 853.370427 298.840495 853.370427 302.173828 853.370427 302.173828 709.505549 345.333291 661.550590 359.719779 613.595631 374.106267 565.640671 388.492755 421.775794 431.652218 421.775794 431.652218 421.775794 581.943234 421.775794 682.137244 421.775794 782.331255 421.775794 882.525265 "/>
<path style="fill:rgb(0,0,0);stroke:none" d="M421.775794 882.525265 L425.359079 870.028863 L418.192508 870.028863 z"/>
</g>
<g>
<path style="fill:none;stroke:rgb(0,0,0);stroke-width:1" d="M974.302778 823.092648 C974.302778 836.425981 974.302778 849.759314 974.302778 863.092648 "/>
<path style="fill:rgb(0,0,0);stroke:none" d="M974.302778 863.092648 L977.886063 850.596246 L970.719492 850.596246 z"/>
</g>
<g>
<path style="fill:none;stroke:rgb(0,0,0);stroke-width:1" d="M1109.082937 1523.988156 C1109.082937 1552.132361 1109.082937 1580.276567 1109.082937 1608.420773 "/>
<path style="fill:rgb(0,0,0);stroke:none" d="M1109.082937 1608.420773 L1112.666222 1595.924371 L1105.499651 1595.924371 z"/>
</g>
<g>
<path style="fill:none;stroke:rgb(0,0,0);stroke-width:1" d="M392.564246 979.179562 C392.564246 981.401784 392.564246 983.624006 392.564246 985.846228 392.564246 989.179562 392.564246 989.179562 338.424841 1016.642127 320.378373 1025.796315 302.331905 1034.950504 284.285436 1044.104692 230.146032 1071.567257 230.146032 1071.567257 230.146032 1076.567257 230.146032 1079.900590 230.146032 1083.233924 230.146032 1086.567257 "/>
<path style="fill:rgb(0,0,0);stroke:none" d="M230.146032 1086.567257 L233.729317 1074.070855 L226.562746 1074.070855 z"/>
</g>
<g>
<path style="fill:none;stroke:rgb(0,0,0);stroke-width:1" d="M912.560714 1523.988156 C912.560714 1526.210378 912.560714 1528.432600 912.560714 1530.654822 912.560714 1533.988156 912.560714 1533.988156 896.561680 1558.117387 891.228668 1566.160465 885.895656 1574.203542 880.562645 1582.246619 864.563610 1606.375851 864.563610 1606.375851 864.563610 1611.375851 864.563610 1614.709184 864.563610 1618.042518 864.563610 1621.375851 "/>
<path style="fill:rgb(0,0,0);stroke:none" d="M864.563610 1621.375851 L868.146896 1608.879449 L860.980325 1608.879449 z"/>
</g>
<g>
<path style="fill:none;stroke:rgb(0,0,0);stroke-width:1" d="M280.334318 1530.465695 C280.334254 1556.450721 280.334191 1582.435747 280.334127 1608.420773 "/>
<path style="fill:rgb(0,0,0);stroke:none" d="M280.334127 1608.420773 L283.917443 1595.924379 L276.750872 1595.924362 z"/>
</g>
<g>
<path style="fill:none;stroke:rgb(0,0,0);stroke-width:1" d="M974.302778 686.438351 C974.302778 699.771684 974.302778 713.105018 974.302778 726.438351 "/>
<path style="fill:rgb(0,0,0);stroke:none" d="M974.302778 726.438351 L977.886063 713.941949 L970.719492 713.941949 z"/>
</g>
<g>
<path style="fill:none;stroke:rgb(0,0,0);stroke-width:1" d="M488.191403 1183.221554 C488.191403 1185.443776 488.191403 1187.665998 488.191403 1189.888221 488.191403 1193.221554 488.191403 1193.221554 523.579057 1231.982296 535.374942 1244.902544 547.170826 1257.822791 558.966711 1270.743038 594.354365 1309.503781 594.354365 1309.503781 594.354365 1411.301958 594.354365 1479.167409 594.354365 1547.032860 594.354365 1614.898312 "/>
<path style="fill:rgb(0,0,0);stroke:none" d="M594.354365 1614.898312 L597.937651 1602.401910 L590.771079 1602.401910 z"/>
</g>
<g>
<path style="fill:none;stroke:rgb(0,0,0);stroke-width:1" d="M809.483730 823.092648 C809.483730 842.903520 809.483730 862.714393 809.483730 882.525265 "/>
<path style="fill:rgb(0,0,0);stroke:none" d="M809.483730 882.525265 L813.067016 870.028863 L805.900445 870.028863 z"/>
</g>
<g>
<path style="fill:none;stroke:rgb(0,0,0);stroke-width:1" d="M930.416081 292.173828 C930.416081 294.396050 930.416081 296.618273 930.416081 298.840495 930.416081 302.173828 930.416081 302.173828 989.971700 366.442341 1009.823572 387.865179 1029.675445 409.288016 1049.527318 430.710854 1109.082937 494.979367 1109.082937 494.979367 1109.082937 696.147498 1109.082937 830.259586 1109.082937 964.371673 1109.082937 1098.483761 "/>
<path style="fill:rgb(0,0,0);stroke:none" d="M1109.082937 1098.483761 L1112.666222 1085.987359 L1105.499651 1085.987359 z"/>
</g>
<g>
<path style="fill:none;stroke:rgb(0,0,0);stroke-width:1" d="M1109.082937 1171.305050 C1109.082937 1199.103064 1109.082937 1226.901079 1109.082937 1254.699093 "/>
<path style="fill:rgb(0,0,0);stroke:none" d="M1109.082937 1254.699093 L1112.666222 1242.202691 L1105.499651 1242.202691 z"/>
</g>
<g>
<path style="fill:none;stroke:rgb(0,0,0);stroke-width:1" d="M771.284524 1517.510617 C771.284524 1519.732839 771.284524 1521.955061 771.284524 1524.177283 771.284524 1527.510617 771.284524 1527.510617 787.283558 1553.799028 792.616570 1562.561832 797.949582 1571.324636 803.282593 1580.087439 819.281628 1606.375851 819.281628 1606.375851 819.281628 1611.375851 819.281628 1614.709184 819.281628 1618.042518 819.281628 1621.375851 "/>
<path style="fill:rgb(0,0,0);stroke:none" d="M819.281628 1621.375851 L822.864913 1608.879449 L815.698342 1608.879449 z"/>
</g>
<g>
<path style="fill:none;stroke:rgb(0,0,0);stroke-width:1" d="M813.498547 1196.176632 C813.498547 1198.398854 813.498547 1200.621077 813.498547 1202.843299 813.498547 1206.176632 813.498547 1206.176632 799.427206 1219.509965 794.736759 1223.954410 790.046312 1228.398854 785.355865 1232.843299 771.284524 1246.176632 771.284524 1246.176632 771.284524 1251.176632 771.284524 1254.509965 771.284524 1257.843299 771.284524 1261.176632 "/>
<path style="fill:rgb(0,0,0);stroke:none" d="M771.284524 1261.176632 L774.867809 1248.680230 L767.701238 1248.680230 z"/>
</g>
<g>
<path style="fill:none;stroke:rgb(0,0,0);stroke-width:1" d="M771.284524 1357.830929 C771.284524 1383.157752 771.284524 1408.484575 771.284524 1433.811398 "/>
<path style="fill:rgb(0,0,0);stroke:none" d="M771.284524 1433.811398 L774.867809 1421.314996 L767.701238 1421.314996 z"/>
</g>
<g>
<path style="fill:none;stroke:rgb(0,0,0);stroke-width:1" d="M870.346691 1196.176632 C870.346691 1198.398854 870.346691 1200.621077 870.346691 1202.843299 870.346691 1206.176632 870.346691 1206.176632 884.418032 1219.509965 889.108479 1223.954410 893.798926 1228.398854 898.489373 1232.843299 912.560714 1246.176632 912.560714 1246.176632 912.560714 1251.176632 912.560714 1254.509965 912.560714 1257.843299 912.560714 1261.176632 "/>
<path style="fill:rgb(0,0,0);stroke:none" d="M912.560714 1261.176632 L916.144000 1248.680230 L908.977429 1248.680230 z"/>
</g>
<g>
<path style="fill:none;stroke:rgb(0,0,0);stroke-width:1" d="M912.560714 1357.830929 C912.560714 1380.998572 912.560714 1404.166215 912.560714 1427.333859 "/>
<path style="fill:rgb(0,0,0);stroke:none" d="M912.560714 1427.333859 L916.144000 1414.837457 L908.977429 1414.837457 z"/>
</g>
<g>
<path style="fill:none;stroke:rgb(0,0,0);stroke-width:1" d="M230.146032 1183.221554 C230.146032 1213.247840 230.146032 1243.274126 230.146032 1273.300411 "/>
<path style="fill:rgb(0,0,0);stroke:none" d="M230.146032 1273.300411 L233.729317 1260.804009 L226.562746 1260.804009 z"/>
</g>
<g>
<path style="fill:none;stroke:rgb(0,0,0);stroke-width:1" d="M879.052312 292.173828 C879.052312 294.396050 879.052312 296.618273 879.052312 298.840495 879.052312 302.173828 879.052312 302.173828 855.862784 345.333291 848.132942 359.719779 840.403100 374.106267 832.673257 388.492755 809.483730 431.652218 809.483730 431.652218 809.483730 436.652218 809.483730 439.985551 809.483730 443.318885 809.483730 446.652218 "/>
<path style="fill:rgb(0,0,0);stroke:none" d="M809.483730 446.652218 L813.067016 434.155816 L805.900445 434.155816 z"/>
</g>
<g>
<path style="fill:none;stroke:rgb(0,0,0);stroke-width:1" d="M1109.082937 1364.308468 C1109.082937 1385.316932 1109.082937 1406.325395 1109.082937 1427.333859 "/>
<path style="fill:rgb(0,0,0);stroke:none" d="M1109.082937 1427.333859 L1112.666222 1414.837457 L1105.499651 1414.837457 z"/>
</g>
<g>
<path style="fill:none;stroke:rgb(0,0,0);stroke-width:1" d="M230.145841 1530.465695 C230.145841 1532.687917 230.145841 1534.910139 230.145841 1537.132361 230.145841 1540.465695 230.145841 1540.465695 188.286116 1553.799028 174.332875 1558.243472 160.379633 1562.687917 146.426391 1567.132361 104.566667 1580.465695 104.566667 1580.465695 104.566667 1585.465695 104.566667 1588.799028 104.566667 1592.132361 104.566667 1595.465695 "/>
<path style="fill:rgb(0,0,0);stroke:none" d="M104.566667 1595.465695 L108.149952 1582.969293 L100.983381 1582.969293 z"/>
</g>
<g>
<path style="fill:none;stroke:rgb(0,0,0);stroke-width:1" d="M230.146032 1345.707150 C230.145968 1370.756873 230.145905 1395.806596 230.145841 1420.856320 "/>
<path style="fill:rgb(0,0,0);stroke:none" d="M230.145841 1420.856320 L233.729158 1408.359927 L226.562587 1408.359908 z"/>
</g>
<g>
<path style="fill:none;stroke:rgb(0,0,0);stroke-width:1" d="M809.483730 679.960812 C809.483730 695.453325 809.483730 710.945838 809.483730 726.438351 "/>
<path style="fill:rgb(0,0,0);stroke:none" d="M809.483730 726.438351 L813.067016 713.941949 L805.900445 713.941949 z"/>
</g>
<g>
<path style="fill:none;stroke:rgb(0,0,0);stroke-width:1" d="M809.483730 543.306515 C809.483730 556.639848 809.483730 569.973182 809.483730 583.306515 "/>
<path style="fill:rgb(0,0,0);stroke:none" d="M809.483730 583.306515 L813.067016 570.810113 L805.900445 570.810113 z"/>
</g>
<g>
<path style="fill:none;stroke:rgb(0,0,0);stroke-width:1" d="M891.893254 142.564453 C891.893254 155.897786 891.893254 169.231120 891.893254 182.564453 "/>
<path style="fill:rgb(0,0,0);stroke:none" d="M891.893254 182.564453 L895.476540 170.068051 L888.309968 170.068051 z"/>
</g>
<g>
<path style="fill:none;stroke:rgb(0,0,0);stroke-width:1" d="M413.783200 1183.221554 C413.783200 1185.443776 413.783200 1187.665998 413.783200 1189.888221 413.783200 1193.221554 413.783200 1193.221554 392.817768 1211.531450 385.829291 1217.634748 378.840814 1223.738047 371.852337 1229.841346 350.886905 1248.151242 350.886905 1248.151242 350.886905 1253.151242 350.886905 1256.484575 350.886905 1259.817908 350.886905 1263.151242 "/>
<path style="fill:rgb(0,0,0);stroke:none" d="M350.886905 1263.151242 L354.470190 1250.654839 L347.303619 1250.654839 z"/>
</g>
<g>
<path style="fill:none;stroke:rgb(0,0,0);stroke-width:1" d="M450.987302 1183.221554 C450.987302 1329.272986 450.987302 1475.324419 450.987302 1621.375851 "/>
<path style="fill:rgb(0,0,0);stroke:none" d="M450.987302 1621.375851 L454.570587 1608.879449 L447.404016 1608.879449 z"/>
</g>
<g>
<path style="fill:none;stroke:rgb(0,0,0);stroke-width:1" d="M350.886905 1355.856320 C350.886905 1358.078542 350.886905 1360.300764 350.886905 1362.522986 350.886905 1365.856320 350.886905 1365.856320 327.369376 1379.189653 319.530199 1383.634097 311.691023 1388.078542 303.851847 1392.522986 280.334318 1405.856320 280.334318 1405.856320 280.334318 1410.856320 280.334318 1414.189653 280.334318 1417.522986 280.334318 1420.856320 "/>
<path style="fill:rgb(0,0,0);stroke:none" d="M280.334318 1420.856320 L283.917603 1408.359918 L276.751032 1408.359918 z"/>
</g>
<g>
<path style="fill:none;stroke:rgb(0,0,0);stroke-width:1" d="M809.483730 979.179562 C809.483730 981.401784 809.483730 983.624006 809.483730 985.846228 809.483730 989.179562 809.483730 989.179562 810.822002 1008.990434 811.268093 1015.594058 811.714184 1022.197682 812.160275 1028.801307 813.498547 1048.612179 813.498547 1048.612179 813.498547 1056.945512 813.498547 1062.501068 813.498547 1068.056623 813.498547 1073.612179 "/>
<path style="fill:rgb(0,0,0);stroke:none" d="M813.498547 1073.612179 L817.081832 1061.115777 L809.915261 1061.115777 z"/>
</g>
<g>
<path style="fill:none;stroke:rgb(0,0,0);stroke-width:1" d="M974.302778 998.612179 C974.302778 1000.834401 974.302778 1003.056623 974.302778 1005.278846 974.302778 1008.612179 974.302778 1008.612179 939.650749 1021.945512 928.100073 1026.389957 916.549396 1030.834401 904.998720 1035.278846 870.346691 1048.612179 870.346691 1048.612179 870.346691 1056.945512 870.346691 1062.501068 870.346691 1068.056623 870.346691 1073.612179 "/>
<path style="fill:rgb(0,0,0);stroke:none" d="M870.346691 1073.612179 L873.929977 1061.115777 L866.763406 1061.115777 z"/>
</g>
<g>
<path style="fill:none;stroke:rgb(0,0,0);stroke-width:1" d="M904.734196 292.173828 C904.734196 294.396050 904.734196 296.618273 904.734196 298.840495 904.734196 302.173828 904.734196 302.173828 927.923723 366.442341 935.653566 387.865179 943.383408 409.288016 951.113251 430.710854 974.302778 494.979367 974.302778 494.979367 974.302778 522.262570 974.302778 540.451372 974.302778 558.640174 974.302778 576.828976 "/>
<path style="fill:rgb(0,0,0);stroke:none" d="M974.302778 576.828976 L977.886063 564.332574 L970.719492 564.332574 z"/>
</g>
<g>
<path style="fill:none;stroke:rgb(0,0,0);stroke-width:1" d="M450.987342 979.179562 C450.987328 1014.975460 450.987315 1050.771359 450.987302 1086.567257 "/>
<path style="fill:rgb(0,0,0);stroke:none" d="M450.987302 1086.567257 L454.570592 1074.070856 L447.404021 1074.070854 z"/>
</g>
<g>
<rect x="805.487980531" y="20.0" width="172.810546875" style="fill:rgb(255,255,255);stroke-width:1;stroke:rgb(0,0,0)" rx="10" ry="10" height="122.564453125"/>
<text style="fill:rgb(0,0,0);font-family:Arial;font-size:11px">
<tspan x="814.963806152" y="46.4301757812">Let's stop talking about "unit </tspan>
<tspan x="824.90423584" y="59.3852539062">test" as there's no way to </tspan>
<tspan x="814.487976074" y="72.3403320312">agree on what a "unit" is. For </tspan>
<tspan x="817.178405762" y="85.2954101562">some people, the unit is the </tspan>
<tspan x="813.487976074" y="98.2504882812">class, for some, each method </tspan>
<tspan x="819.462585449" y="111.205566406">of a class, for some others, </tspan>
<tspan x="824.620300293" y="124.160644531">the unit is the user story.</tspan>
</text>
</g>
<g>
<rect x="1055.77434276" y="1254.69909308" width="106.6171875" style="fill:rgb(255,255,0);stroke-width:1;stroke:rgb(0,0,0)" rx="10" ry="10" height="109.609375"/>
<text style="fill:rgb(0,0,0);font-family:Arial;font-size:11px">
<tspan x="1067.33972168" y="1281.12927246">Isolated tests = </tspan>
<tspan x="1067.07751465" y="1294.08435059">CHECKING each </tspan>
<tspan x="1063.77429199" y="1307.03942871">ingredients,  and </tspan>
<tspan x="1070.91516113" y="1319.99450684">the way we do </tspan>
<tspan x="1066.27233887" y="1332.94958496">each step of the </tspan>
<tspan x="1092.83532715" y="1345.90466309">recipe</tspan>
</text>
</g>
<g>
<rect x="205.051602803" y="1420.85631964" width="100.376953125" style="fill:rgb(255,255,0);stroke-width:1;stroke:rgb(0,0,0)" rx="10" ry="10" height="109.609375"/>
<text style="fill:rgb(0,0,0);font-family:Arial;font-size:11px">
<tspan x="223.992034912" y="1447.28649902">FAILURE TO </tspan>
<tspan x="221.11630249" y="1460.24157715">DISTINGUISH </tspan>
<tspan x="224.373382568" y="1473.19665527">THESE TWO </tspan>
<tspan x="213.051605225" y="1486.1517334">ACTIVITIES CAN </tspan>
<tspan x="222.438079834" y="1499.10681152">HARM YOUR </tspan>
<tspan x="232.474700928" y="1512.06188965">PROJECT</tspan>
</text>
</g>
<g>
<rect x="736.988368831" y="583.306514951" width="144.990722656" style="fill:rgb(255,255,255);stroke-width:1;stroke:rgb(0,0,0)" rx="10" ry="10" height="96.654296875"/>
<text style="fill:rgb(0,0,0);font-family:Arial;font-size:11px">
<tspan x="744.988342285" y="609.736694336">set up some test data at </tspan>
<tspan x="756.572814941" y="622.691772461">one end, launch the </tspan>
<tspan x="751.721496582" y="635.646850586">system or subsystem, </tspan>
<tspan x="752.613830566" y="648.601928711">check some resulting </tspan>
<tspan x="753.19732666" y="661.557006836">data at the other end</tspan>
</text>
</g>
<g>
<rect x="872.475753348" y="1261.17663214" width="80.169921875" style="fill:rgb(255,255,255);stroke-width:1;stroke:rgb(0,0,0)" rx="10" ry="10" height="96.654296875"/>
<text style="fill:rgb(0,0,0);font-family:Arial;font-size:11px">
<tspan x="895.612976074" y="1287.60681152">lots of </tspan>
<tspan x="883.19354248" y="1300.56188965">integration </tspan>
<tspan x="883.382019043" y="1313.51696777">tests and a </tspan>
<tspan x="880.475769043" y="1326.4720459">few isolated </tspan>
<tspan x="899.774841309" y="1339.42712402">tests</tspan>
</text>
</g>
<g>
<rect x="1067.11320995" y="1098.48376104" width="83.939453125" style="fill:rgb(255,255,255);stroke-width:1;stroke:rgb(0,0,0)" rx="10" ry="10" height="72.8212890625"/>
<text style="fill:rgb(0,0,0);font-family:Arial;font-size:18px">
<tspan x="1098.6126709" y="1130.22546387">an </tspan>
<tspan x="1075.11315918" y="1151.42468262">analogy</tspan>
</text>
</g>
<g>
<rect x="363.352697948" y="882.525264951" width="116.846191406" style="fill:rgb(255,255,0);stroke-width:1;stroke:rgb(0,0,0)" rx="10" ry="10" height="96.654296875"/>
<text style="fill:rgb(0,0,0);font-family:Arial;font-size:11px">
<tspan x="371.455963135" y="908.955444336">By the way, writing </tspan>
<tspan x="374.253082275" y="921.910522461">executable "tests" </tspan>
<tspan x="376.612701416" y="934.865600586">(we should really </tspan>
<tspan x="371.35269165" y="947.820678711">call them "checks") </tspan>
<tspan x="382.531890869" y="960.775756836">is not TESTING</tspan>
</text>
</g>
<g>
<rect x="720.769387091" y="1433.81139776" width="101.030273438" style="fill:rgb(255,255,255);stroke-width:1;stroke:rgb(0,0,0)" rx="10" ry="10" height="83.69921875"/>
<text style="fill:rgb(0,0,0);font-family:Arial;font-size:11px">
<tspan x="746.05847168" y="1460.24157715">gives you </tspan>
<tspan x="728.76940918" y="1473.19665527">better reliability </tspan>
<tspan x="749.152709961" y="1486.1517334">than the </tspan>
<tspan x="748.089477539" y="1499.10681152">opposite</tspan>
</text>
</g>
<g>
<rect x="917.154340278" y="863.092647763" width="114.296875" style="fill:rgb(255,255,255);stroke-width:1;stroke:rgb(0,0,0)" rx="10" ry="10" height="135.51953125"/>
<text style="fill:rgb(0,0,0);font-family:Arial;font-size:11px">
<tspan x="925.15435791" y="889.522827148">You can get pretty </tspan>
<tspan x="941.356262207" y="902.477905273">much all the </tspan>
<tspan x="930.214416504" y="915.432983398">behavior of your </tspan>
<tspan x="944.241516113" y="928.388061523">component </tspan>
<tspan x="929.84967041" y="941.343139648">covered, without </tspan>
<tspan x="942.298400879" y="954.298217773">even paying </tspan>
<tspan x="932.848449707" y="967.253295898">attention to the </tspan>
<tspan x="945.997131348" y="980.208374023">dashboard</tspan>
</text>
</g>
<g>
<rect x="1057.08537791" y="1427.3338587" width="103.995117188" style="fill:rgb(255,255,0);stroke-width:1;stroke:rgb(0,0,0)" rx="10" ry="10" height="96.654296875"/>
<text style="fill:rgb(0,0,0);font-family:Arial;font-size:11px">
<tspan x="1065.08532715" y="1453.76403809">Integration tests </tspan>
<tspan x="1074.61364746" y="1466.71911621">= baking the </tspan>
<tspan x="1083.17468262" y="1479.67419434">cake then </tspan>
<tspan x="1071.02575684" y="1492.62927246">CHECKING the </tspan>
<tspan x="1093.9041748" y="1505.58435059">result</tspan>
</text>
</g>
<g>
<rect x="198.63319925" y="1608.42077276" width="163.401855469" style="fill:rgb(255,255,255);stroke-width:1;stroke:rgb(0,0,0)" rx="10" ry="10" height="109.609375"/>
<text style="fill:rgb(0,0,0);font-family:Arial;font-size:11px">
<tspan x="211.300186157" y="1634.85095215">building a system without </tspan>
<tspan x="206.63319397" y="1647.80603027">building automated checks, </tspan>
<tspan x="208.015762329" y="1660.7611084">relying on "manual testing" </tspan>
<tspan x="209.919815063" y="1673.71618652">by a QA team is inefficient </tspan>
<tspan x="206.663955688" y="1686.67126465">and a cruel waste of smarts </tspan>
<tspan x="250.58631897" y="1699.62634277">and energy</tspan>
</text>
</g>
<g>
<rect x="1045.32219432" y="1608.42077276" width="127.521484375" style="fill:rgb(255,255,0);stroke-width:1;stroke:rgb(0,0,0)" rx="10" ry="10" height="109.609375"/>
<text style="fill:rgb(0,0,0);font-family:Arial;font-size:11px">
<tspan x="1053.32214355" y="1634.85095215">Testing = everything </tspan>
<tspan x="1062.51257324" y="1647.80603027">else involving the </tspan>
<tspan x="1056.89587402" y="1660.7611084">serving of the cake, </tspan>
<tspan x="1056.61315918" y="1673.71618652">the comments from </tspan>
<tspan x="1069.28552246" y="1686.67126465">the guests, the </tspan>
<tspan x="1064.48132324" y="1699.62634277">nutrition facts ...</tspan>
</text>
</g>
<g>
<rect x="168.064488777" y="1086.56725714" width="124.163085938" style="fill:rgb(255,255,255);stroke-width:1;stroke:rgb(0,0,0)" rx="10" ry="10" height="96.654296875"/>
<text style="fill:rgb(0,0,0);font-family:Arial;font-size:11px">
<tspan x="181.018585205" y="1112.99743652">AUTOMATED TEST </tspan>
<tspan x="180.702178955" y="1125.95251465">(or CHECK) : a way </tspan>
<tspan x="204.882354736" y="1138.90759277">to VERIFY </tspan>
<tspan x="184.830841064" y="1151.8626709">something about </tspan>
<tspan x="176.064483643" y="1164.81774902">the code, or the app</tspan>
</text>
</g>
<g>
<rect x="741.027919612" y="726.438350888" width="136.911621094" style="fill:rgb(255,255,255);stroke-width:1;stroke:rgb(0,0,0)" rx="10" ry="10" height="96.654296875"/>
<text style="fill:rgb(0,0,0);font-family:Arial;font-size:11px">
<tspan x="749.027893066" y="752.868530273">do NOT try to cover all </tspan>
<tspan x="751.978820801" y="765.823608398">the possible cases : it </tspan>
<tspan x="757.077209473" y="778.778686523">will require way too </tspan>
<tspan x="754.773498535" y="791.733764648">much work, and it is </tspan>
<tspan x="766.772766113" y="804.688842773">not even doable</tspan>
</text>
</g>
<g>
<rect x="796.640636626" y="1621.37585089" width="90.5639648438" style="fill:rgb(255,255,0);stroke-width:1;stroke:rgb(0,0,0)" rx="10" ry="10" height="83.69921875"/>
<text style="fill:rgb(0,0,0);font-family:Arial;font-size:11px">
<tspan x="806.223388672" y="1647.80603027">Isolated tests </tspan>
<tspan x="804.640625" y="1660.7611084">are a Divide &amp; </tspan>
<tspan x="818.886230469" y="1673.71618652">Conquer </tspan>
<tspan x="820.349609375" y="1686.67126465">strategy</tspan>
</text>
</g>
<g>
<rect x="785.074474516" y="1073.61217901" width="113.696289062" style="fill:rgb(255,255,0);stroke-width:1;stroke:rgb(0,0,0)" rx="10" ry="10" height="122.564453125"/>
<text style="fill:rgb(0,0,0);font-family:Arial;font-size:11px">
<tspan x="811.717041016" y="1100.0423584">WHICH IS A </tspan>
<tspan x="822.341552734" y="1112.99743652">BETTER </tspan>
<tspan x="793.074462891" y="1125.95251465">STRATEGY? DON'T </tspan>
<tspan x="801.90234375" y="1138.90759277">SACRIFICE ONE </tspan>
<tspan x="797.491455078" y="1151.8626709">FOR THE OTHER. </tspan>
<tspan x="793.157714844" y="1164.81774902">BOTH ARE HIGHLY </tspan>
<tspan x="811.468505859" y="1177.77282715">NECESSARY</tspan>
</text>
</g>
<g>
<rect x="745.997646174" y="882.525264951" width="126.972167969" style="fill:rgb(255,255,255);stroke-width:1;stroke:rgb(0,0,0)" rx="10" ry="10" height="96.654296875"/>
<text style="fill:rgb(0,0,0);font-family:Arial;font-size:11px">
<tspan x="759.137023926" y="908.955444336">go with one or two </tspan>
<tspan x="759.528381348" y="921.910522461">nominal scenarios, </tspan>
<tspan x="769.070861816" y="934.865600586">and one or two </tspan>
<tspan x="778.727355957" y="947.820678711">exceptional </tspan>
<tspan x="753.997619629" y="960.775756836">scenarios ("what ifs")</tspan>
</text>
</g>
<g>
<rect x="395.181149244" y="1086.56725714" width="111.612304688" style="fill:rgb(255,255,255);stroke-width:1;stroke:rgb(0,0,0)" rx="10" ry="10" height="96.654296875"/>
<text style="fill:rgb(0,0,0);font-family:Arial;font-size:11px">
<tspan x="403.181152344" y="1112.99743652">TESTING : looking </tspan>
<tspan x="404.203125" y="1125.95251465">for problems that </tspan>
<tspan x="410.034667969" y="1138.90759277">are threatening </tspan>
<tspan x="414.879882812" y="1151.8626709">the value of a </tspan>
<tspan x="430.147460938" y="1164.81774902">product</tspan>
</text>
</g>
<g>
<rect x="727.579933966" y="1261.17663214" width="87.4091796875" style="fill:rgb(255,255,255);stroke-width:1;stroke:rgb(0,0,0)" rx="10" ry="10" height="96.654296875"/>
<text style="fill:rgb(0,0,0);font-family:Arial;font-size:11px">
<tspan x="754.336791992" y="1287.60681152">lots of </tspan>
<tspan x="735.579956055" y="1300.56188965">isolated tests </tspan>
<tspan x="745.767944336" y="1313.51696777">and a few </tspan>
<tspan x="741.917358398" y="1326.4720459">integration </tspan>
<tspan x="758.498657227" y="1339.42712402">tests</tspan>
</text>
</g>
<g>
<rect x="313.751894996" y="1263.15124151" width="74.2700195312" style="fill:rgb(255,255,255);stroke-width:1;stroke:rgb(0,0,0)" rx="10" ry="10" height="92.705078125"/>
<text style="fill:rgb(0,0,0);font-family:Arial;font-size:13px">
<tspan x="321.75189209" y="1291.09899902">goes way </tspan>
<tspan x="327.75189209" y="1306.4095459">beyond </tspan>
<tspan x="322.861022949" y="1321.72009277">checking </tspan>
<tspan x="331.14251709" y="1337.03063965">things</tspan>
</text>
</g>
<g>
<rect x="840.529484437" y="182.564453125" width="102.727539062" style="fill:rgb(255,255,0);stroke-width:1;stroke:rgb(0,0,0)" rx="10" ry="10" height="109.609375"/>
<text style="fill:rgb(0,0,0);font-family:Arial;font-size:11px">
<tspan x="858.020202637" y="208.994628906">Instead, let's </tspan>
<tspan x="850.792907715" y="221.949707031">distinguish two </tspan>
<tspan x="873.095153809" y="234.904785156">kind of </tspan>
<tspan x="848.52947998" y="247.859863281">automated tests </tspan>
<tspan x="874.031433105" y="260.814941406">for the </tspan>
<tspan x="865.711853027" y="273.770019531">developer</tspan>
</text>
</g>
<g>
<rect x="176.540196785" y="1273.30041144" width="107.211669922" style="fill:rgb(255,255,255);stroke-width:1;stroke:rgb(0,0,0)" rx="10" ry="10" height="72.4067382812"/>
<text style="fill:rgb(0,0,0);font-family:Arial;font-size:12px">
<tspan x="199.530059814" y="1300.10998535">Automated </tspan>
<tspan x="184.54019165" y="1313.65393066">checks are PART </tspan>
<tspan x="193.562774658" y="1327.19787598">of THE BUILD</tspan>
</text>
</g>
<g>
<rect x="40.5002604167" y="1595.46569464" width="128.1328125" style="fill:rgb(255,255,255);stroke-width:1;stroke:rgb(0,0,0)" rx="10" ry="10" height="135.51953125"/>
<text style="fill:rgb(0,0,0);font-family:Arial;font-size:11px">
<tspan x="48.5002593994" y="1621.89587402">A system that is fully </tspan>
<tspan x="73.537612915" y="1634.85095215">checked via </tspan>
<tspan x="76.588394165" y="1647.80603027">thousands </tspan>
<tspan x="50.7839508057" y="1660.7611084">automated tests but </tspan>
<tspan x="62.3684234619" y="1673.71618652">never got in the </tspan>
<tspan x="48.6076812744" y="1686.67126465">hands of a tester is a </tspan>
<tspan x="55.1062164307" y="1699.62634277">disaster waiting to </tspan>
<tspan x="84.7151031494" y="1712.5814209">happen</tspan>
</text>
</g>
<g>
<rect x="539.939814298" y="1614.89831183" width="108.829101562" style="fill:rgb(255,255,255);stroke-width:1;stroke:rgb(0,0,0)" rx="10" ry="10" height="96.654296875"/>
<text style="fill:rgb(0,0,0);font-family:Arial;font-size:11px">
<tspan x="547.939819336" y="1641.32849121">can include some </tspan>
<tspan x="576.027954102" y="1654.28356934">checks </tspan>
<tspan x="563.338745117" y="1667.23864746">(sometimes </tspan>
<tspan x="561.378295898" y="1680.19372559">testers write </tspan>
<tspan x="563.881469727" y="1693.14880371">checks too)</tspan>
</text>
</g>
<g>
<rect x="918.1160102" y="726.438350888" width="112.373535156" style="fill:rgb(255,255,255);stroke-width:1;stroke:rgb(0,0,0)" rx="10" ry="10" height="96.654296875"/>
<text style="fill:rgb(0,0,0);font-family:Arial;font-size:11px">
<tspan x="939.425354004" y="752.868530273">TDD : write a </tspan>
<tspan x="932.429016113" y="765.823608398">failing test, add </tspan>
<tspan x="928.140686035" y="778.778686523">the minimal code </tspan>
<tspan x="934.532287598" y="791.733764648">that makes the </tspan>
<tspan x="926.116027832" y="804.688842773">test pass, refactor</tspan>
</text>
</g>
<g>
<rect x="851.799727958" y="1427.3338587" width="121.521972656" style="fill:rgb(255,255,255);stroke-width:1;stroke:rgb(0,0,0)" rx="10" ry="10" height="96.654296875"/>
<text style="fill:rgb(0,0,0);font-family:Arial;font-size:11px">
<tspan x="859.799743652" y="1453.76403809">you will never catch </tspan>
<tspan x="869.846862793" y="1466.71911621">up the coverage </tspan>
<tspan x="866.566101074" y="1479.67419434">(hence reliability) </tspan>
<tspan x="864.550964355" y="1492.62927246">that isolated tests </tspan>
<tspan x="879.21697998" y="1505.58435059">can give you</tspan>
</text>
</g>
<g>
<path style="stroke:none;fill:rgb(153,153,0)" d="M742.713222 462.819210 v-6.166992 a10,10 0 0,1 10,-10 h113.541016 a10,10 0, 0,1, 10,10 v6.166992 z"/>
<path style="stroke:none;fill:rgb(255,255,255)" d="M742.713222 462.819210 v70.487305 a10,10 0 0,0 10,10 h113.541016 a10,10 0, 0,0, 10,-10 v-70.487305 z"/>
<rect x="742.713222346" y="446.652218076" width="133.541015625" style="fill:none;stroke-width:1;stroke:rgb(0,0,0)" rx="10" ry="10" height="96.654296875"/>
<text style="fill:rgb(255,255,255);font-family:Arial;font-size:11px;font-weight:bold" x="751.713222346" y="458.498897763">integration test</text>
<text style="fill:rgb(0,0,0);font-family:Arial;font-size:11px">
<tspan x="755.799377441" y="481.165893555">an automated check </tspan>
<tspan x="765.28692627" y="494.12097168">that allows us to </tspan>
<tspan x="758.692687988" y="507.076049805">assert that parts of </tspan>
<tspan x="769.936096191" y="520.03112793">our system are </tspan>
<tspan x="750.713195801" y="532.986206055">correctly INTEGRATED</tspan>
</text>
</g>
<g>
<rect x="392.03515315" y="1621.37585089" width="117.904296875" style="fill:rgb(255,255,255);stroke-width:1;stroke:rgb(0,0,0)" rx="10" ry="10" height="83.69921875"/>
<text style="fill:rgb(0,0,0);font-family:Arial;font-size:11px">
<tspan x="408.084960938" y="1647.80603027">testing can (and </tspan>
<tspan x="407.878662109" y="1660.7611084">should) be done </tspan>
<tspan x="400.03515625" y="1673.71618652">INDEPENDENTLY of </tspan>
<tspan x="425.101318359" y="1686.67126465">the BUILD</tspan>
</text>
</g>
<g>
<path style="stroke:none;fill:rgb(102,204,0)" d="M911.979291 592.995968 v-6.166992 a10,10 0 0,1 10,-10 h104.646973 a10,10 0, 0,1, 10,10 v6.166992 z"/>
<path style="stroke:none;fill:rgb(255,255,255)" d="M911.979291 592.995968 v83.442383 a10,10 0 0,0 10,10 h104.646973 a10,10 0, 0,0, 10,-10 v-83.442383 z"/>
<rect x="911.97929145" y="576.828975888" width="124.646972656" style="fill:none;stroke-width:1;stroke:rgb(0,0,0)" rx="10" ry="10" height="109.609375"/>
<text style="fill:rgb(0,0,0);font-family:Arial;font-size:11px;font-weight:bold" x="920.97929145" y="588.675655576">isolated test</text>
<text style="fill:rgb(0,0,0);font-family:Arial;font-size:11px">
<tspan x="920.618469238" y="611.342651367">an automated check </tspan>
<tspan x="927.308654785" y="624.297729492">that executes our </tspan>
<tspan x="928.75982666" y="637.252807617">code in isolation, </tspan>
<tspan x="936.782287598" y="650.207885742">allowing us to </tspan>
<tspan x="919.979309082" y="663.162963867">assert that this code </tspan>
<tspan x="920.790588379" y="676.118041992">works AS INTENDED</tspan>
</text>
</g>
</svg>
